<svg viewBox="0 0 6 6" xmlns="http://www.w3.org/2000/svg"><g fill="#A5A5A5" fill-rule="nonzero"><path d="M5.76 1.832A2.94 2.94 0 0 0 4.164.24a2.947 2.947 0 0 0-2.332 0A2.95 2.95 0 0 0 .236 1.832C.077 2.202 0 2.59 0 2.997c0 .407.077.798.236 1.168.317.74.857 1.279 1.595 1.595a2.948 2.948 0 0 0 2.332 0A2.947 2.947 0 0 0 5.76 4.165C5.92 3.794 6 3.404 6 2.997c0-.407-.08-.794-.24-1.165zm-.478 2.49a2.633 2.633 0 0 1-.965.963 2.583 2.583 0 0 1-1.322.354 2.682 2.682 0 0 1-1.863-.771 2.668 2.668 0 0 1-.417-3.19c.235-.405.558-.726.961-.962A2.563 2.563 0 0 1 2.996.36c.475 0 .917.119 1.321.355.406.237.728.558.965.961.236.404.354.844.354 1.32 0 .476-.117.92-.354 1.326z"/><path d="M3.044 2.93V1.06c0-.113-.113-.203-.242-.203-.122 0-.23.09-.23.202v1.9c0 .004.008.019.008.03a.174.174 0 0 0 .063.162l1.25 1.08a.266.266 0 0 0 .323 0c.096-.083.09-.203 0-.281L3.044 2.93z"/></g></svg>