<svg viewBox="0 0 6 8" xmlns="http://www.w3.org/2000/svg"><g fill="#A5A5A5" fill-rule="nonzero"><path d="M5.462 1.296A2.948 2.948 0 0 0 3 0C2.002 0 1.105.472.538 1.296A3.023 3.023 0 0 0 .19 4.07c.092.25.239.493.434.721l2.179 2.572a.259.259 0 0 0 .395 0l2.177-2.571c.197-.23.343-.472.435-.72a3.024 3.024 0 0 0-.348-2.776zM5.324 3.89a1.861 1.861 0 0 1-.343.564L3 6.792l-1.983-2.34a1.862 1.862 0 0 1-.343-.565 2.5 2.5 0 0 1 .29-2.294A2.437 2.437 0 0 1 3 .52c.825 0 1.567.39 2.035 1.072.467.678.575 1.536.29 2.296z"/><path d="M3.09 1.636c-.801 0-1.454.653-1.454 1.455s.653 1.454 1.455 1.454 1.454-.652 1.454-1.454c0-.802-.652-1.455-1.454-1.455zm0 2.39a.936.936 0 0 1 0-1.87.936.936 0 0 1 0 1.87z"/></g></svg>